<?xml version="1.0" encoding="UTF-8" standalone="no"?>
<svg
   fill="none"
   viewBox="0 0 35 32"
   version="1.1"
   id="svg6"
   sodipodi:docname="gameify-mark-white-500.svg"
   inkscape:version="1.1.1 (3bf5ae0d25, 2021-09-20)"
   xmlns:inkscape="http://www.inkscape.org/namespaces/inkscape"
   xmlns:sodipodi="http://sodipodi.sourceforge.net/DTD/sodipodi-0.dtd"
   xmlns="http://www.w3.org/2000/svg"
   xmlns:svg="http://www.w3.org/2000/svg">
  <defs
     id="defs10" />
  <sodipodi:namedview
     id="namedview8"
     pagecolor="#505050"
     bordercolor="#eeeeee"
     borderopacity="1"
     inkscape:pageshadow="0"
     inkscape:pageopacity="0"
     inkscape:pagecheckerboard="0"
     showgrid="false"
     inkscape:zoom="16"
     inkscape:cx="18.5"
     inkscape:cy="19.53125"
     inkscape:window-width="2560"
     inkscape:window-height="1009"
     inkscape:window-x="1912"
     inkscape:window-y="-8"
     inkscape:window-maximized="1"
     inkscape:current-layer="svg6" />
  <g
     id="g8859"
     transform="matrix(0.74600691,0,0,0.74600691,4.450697,4.0638894)"
     style="fill:#ffffff;fill-opacity:1">
    <g
       id="g2063"
       transform="translate(183.49784,-38.733148)"
       style="fill:#ffffff;fill-opacity:1">
      <path
         d="m -181.02867,65.566232 c -0.0292,1.084998 0.37909,2.136169 1.133,2.917 0.75343,0.777387 1.78942,1.216744 2.872,1.218 1.08291,3.49e-4 2.1195,-0.439262 2.872,-1.218 0.75537,-0.779897 1.1639,-1.831706 1.133,-2.917 -0.009,-0.698 -0.2,-1.382 -0.557,-1.981 -0.356,-0.6 -0.863,-1.094 -1.47,-1.433 0.024,0.109 -0.09,-0.055 0,0 l -1.86,-1.652 c -1.47442,-1.56922 -2.29793,-3.639787 -2.304,-5.793 0,-2.926 1.711,-5.901 4.17,-7.457 -0.094,0.055 0.036,-0.094 0,0 0.60731,-0.339979 1.11406,-0.834312 1.469,-1.433 0.35617,-0.599701 0.54827,-1.282562 0.557,-1.98 0.0296,-1.085361 -0.37874,-2.136986 -1.133,-2.918 -0.75319,-0.777139 -1.78876,-1.216474 -2.871,-1.218 -1.08296,-5.8e-4 -2.11963,0.439068 -2.872,1.218 -0.75566,0.779709 -1.16424,1.831647 -1.133,2.917 -0.0104,2.172084 -0.84994,4.258196 -2.347,5.832 l -0.817,0.8 c -0.326,0.285 -0.668,0.551 -1.024,0.798 -0.621,0.33 -1.142,0.826 -1.504,1.431 -1.1433,1.910844 -0.45829,4.389446 1.504,5.442 -0.033,-0.067 0.063,0.036 0,0 1.25616,0.794058 2.2953,1.887835 3.024,3.183 0.7305,1.297352 1.12834,2.755419 1.158,4.244 z"
         style="fill:#ffffff;fill-opacity:1"
         id="path1777" />
      <path
         d="m -176.83601,69.758895 c -1.08499,0.0292 -2.13616,-0.379093 -2.917,-1.133 -0.77738,-0.75343 -1.21674,-1.789417 -1.218,-2.872 -3.4e-4,-1.08291 0.43927,-2.119497 1.218,-2.872 0.7799,-0.755366 1.83171,-1.163902 2.917,-1.133 0.698,0.009 1.382,0.2 1.981,0.557 0.6,0.356 1.094,0.863 1.433,1.47 -0.109,-0.024 0.055,0.09 0,0 l 1.652,1.86 c 1.56922,1.474419 3.63979,2.297928 5.793,2.304 2.926,0 5.901,-1.711 7.457,-4.17 -0.055,0.094 0.094,-0.036 0,0 0.33998,-0.607308 0.83432,-1.11406 1.433,-1.469 0.59971,-0.356166 1.28257,-0.548264 1.98,-0.557 1.08537,-0.02958 2.13699,0.378745 2.918,1.133 0.77714,0.753188 1.21648,1.788764 1.218,2.871 5.8e-4,1.082957 -0.43906,2.11963 -1.218,2.872 -0.7797,0.755659 -1.83164,1.164245 -2.917,1.133 -2.17208,0.01041 -4.25819,0.849938 -5.832,2.347 l -0.8,0.817 c -0.285,0.326 -0.551,0.668 -0.798,1.024 -0.33,0.621 -0.826,1.142 -1.431,1.504 -1.91084,1.143302 -4.38944,0.458293 -5.442,-1.504 0.067,0.033 -0.036,-0.063 0,0 -0.79405,-1.256158 -1.88783,-2.295298 -3.183,-3.024 -1.29735,-0.7305 -2.75541,-1.128342 -4.244,-1.158 z"
         style="fill:#ffffff;fill-opacity:1"
         id="path1777-1" />
      <path
         d="m -176.85206,39.707401 c -1.08499,-0.0292 -2.13616,0.379093 -2.917,1.133 -0.77738,0.75343 -1.21674,1.789417 -1.218,2.872 -3.4e-4,1.08291 0.43927,2.119497 1.218,2.872 0.7799,0.755366 1.83171,1.163902 2.917,1.133 0.698,-0.009 1.382,-0.2 1.981,-0.557 0.6,-0.356 1.094,-0.863 1.433,-1.47 -0.109,0.024 0.055,-0.09 0,0 l 1.652,-1.86 c 1.56922,-1.474419 3.63979,-2.297928 5.793,-2.304 2.926,0 5.901,1.711 7.457,4.17 -0.055,-0.094 0.094,0.036 0,0 0.33998,0.607308 0.83432,1.11406 1.433,1.469 0.59971,0.356166 1.28257,0.548264 1.98,0.557 1.08537,0.02958 2.13699,-0.378745 2.918,-1.133 0.77714,-0.753188 1.21648,-1.788764 1.218,-2.871 5.8e-4,-1.082957 -0.43906,-2.11963 -1.218,-2.872 -0.7797,-0.755659 -1.83164,-1.164245 -2.917,-1.133 -2.17208,-0.01041 -4.25819,-0.849938 -5.832,-2.347 l -0.8,-0.817 c -0.285,-0.326 -0.551,-0.668 -0.798,-1.024 -0.33,-0.621 -0.826,-1.142 -1.431,-1.504 -1.91084,-1.143302 -4.38944,-0.458293 -5.442,1.504 0.067,-0.033 -0.036,0.063 0,0 -0.79405,1.256158 -1.88783,2.295298 -3.183,3.024 -1.29735,0.7305 -2.75541,1.128342 -4.244,1.158 z"
         style="fill:#ffffff;fill-opacity:1"
         id="path1777-1-5" />
    </g>
    <g
       id="g8849"
       style="fill:#ffffff;fill-opacity:1">
      <path
         fill="#6366f1"
         d="m 34.750663,11.913211 c -0.793,0 -1.567001,0.236 -2.226001,0.678 a 4.021,4.021 0 0 0 -1.476,1.807 4.042,4.042 0 0 0 0.869,4.386 4.001,4.001 0 0 0 4.366001,0.873 4.011,4.011 0 0 0 1.798,-1.483 4.038,4.038 0 0 0 -0.5,-5.08 4.004,4.004 0 0 0 -2.831,-1.181 z"
         id="path4-4-5"
         style="fill:#ffffff;fill-opacity:1" />
      <path
         d="m 17.500074,11.975656 c -0.792,0 -1.567,0.236 -2.226,0.678 -0.65962,0.442949 -1.17324,1.071393 -1.476,1.806 -0.6194,1.50398 -0.27696,3.232713 0.869,4.387 1.14258,1.151438 2.86852,1.496546 4.366,0.873 0.73345,-0.305518 1.3596,-0.822032 1.799,-1.484 1.0612,-1.597824 0.85225,-3.721626 -0.5,-5.082 -0.74963,-0.754113 -1.76868,-1.178715 -2.832,-1.18 z"
         style="fill:#ffffff;fill-opacity:1"
         id="path1613" />
      <path
         d="m 23.317336,26.958391 c 1.896433,-2.583202 -3.885763,-6.691016 -6.750022,-7.038835 -0.83135,-0.239208 -1.022671,-0.40309 -1.507705,-0.712512 -0.550623,-0.498725 -1.086161,-1.017118 -1.281209,-1.766545 -0.50895,-1.316763 -0.311405,-2.459489 0.309238,-3.49812 0.620504,-1.034172 1.476183,-1.64065 2.664302,-1.924736 1.189161,-0.283255 2.116526,0.105291 3.149914,0.748488 1.037212,0.643167 1.301607,1.438301 1.555915,2.616258 0.589018,2.338373 3.214793,4.853835 5.277374,6.159391 l 1.10997,0.649027 c 0.433804,0.222095 0.880126,0.419539 1.33677,0.592846 0.769737,0.193607 1.4738,0.592233 2.032231,1.149832 1.763709,1.761144 1.67053,4.611374 -0.204574,6.257942 0.01839,-0.08082 -0.05963,0.05524 0,0 -4.485027,-5.316302 -1.850113,2.895557 -7.508499,-2.038988 z"
         style="fill:#ffffff;fill-opacity:1;stroke-width:1.11941"
         id="path1777-9"
         sodipodi:nodetypes="cccccccccccccccc" />
    </g>
  </g>
</svg>
