<?xml version="1.0" encoding="UTF-8" standalone="no"?>
<svg
   fill="none"
   viewBox="0 0 143 32"
   version="1.1"
   id="svg8"
   sodipodi:docname="workflow-logo-indigo-500-mark-white-text.svg"
   inkscape:version="1.1.1 (3bf5ae0d25, 2021-09-20)"
   xmlns:inkscape="http://www.inkscape.org/namespaces/inkscape"
   xmlns:sodipodi="http://sodipodi.sourceforge.net/DTD/sodipodi-0.dtd"
   xmlns="http://www.w3.org/2000/svg"
   xmlns:svg="http://www.w3.org/2000/svg">
  <defs
     id="defs12">
    <rect
       x="-37.490524"
       y="-80.748821"
       width="174.47513"
       height="55.154329"
       id="rect2715" />
  </defs>
  <sodipodi:namedview
     id="namedview10"
     pagecolor="#505050"
     bordercolor="#eeeeee"
     borderopacity="1"
     inkscape:pageshadow="0"
     inkscape:pageopacity="0"
     inkscape:pagecheckerboard="0"
     showgrid="false"
     inkscape:zoom="7.8461539"
     inkscape:cx="67.294118"
     inkscape:cy="5.9264706"
     inkscape:window-width="2560"
     inkscape:window-height="1009"
     inkscape:window-x="1912"
     inkscape:window-y="-8"
     inkscape:window-maximized="1"
     inkscape:current-layer="svg8" />
  <g
     id="g10380">
    <path
       id="text2713"
       style="font-style:normal;font-variant:normal;font-weight:normal;font-stretch:normal;font-size:40px;line-height:1.25;font-family:'Passion One';-inkscape-font-specification:'Passion One, Normal';font-variant-ligatures:normal;font-variant-caps:normal;font-variant-numeric:normal;font-variant-east-asian:normal;white-space:pre;shape-inside:url(#rect2715);fill:#ffffff;fill-opacity:1;stroke:none;stroke-width:0.773774"
       d="M 111.80859 5.3183594 C 110.81816 5.3183594 110.10714 5.5161575 109.67383 5.9082031 C 109.24051 6.3002487 109.02344 6.9070627 109.02344 7.7324219 C 109.02344 8.557781 109.24051 9.1578853 109.67383 9.5292969 C 110.10714 9.9007085 110.81816 10.085938 111.80859 10.085938 C 112.79902 10.085938 113.51005 9.9007085 113.94336 9.5292969 C 114.37667 9.1372513 114.59375 8.537147 114.59375 7.7324219 C 114.59375 6.9070627 114.37667 6.3002487 113.94336 5.9082031 C 113.51005 5.5161575 112.79902 5.3183594 111.80859 5.3183594 z M 121.2168 5.3183594 C 118.43121 5.3183594 117.03906 6.6912277 117.03906 9.4355469 L 117.03906 10.982422 L 115.67773 10.982422 L 115.67773 14.820312 L 117.03906 14.820312 L 117.03906 25.375 L 122.20898 25.375 L 122.20898 14.820312 L 124.4375 14.820312 L 124.66211 11.306641 L 128.02734 24.292969 C 128.10988 24.705648 128.15039 24.973852 128.15039 25.097656 C 128.15039 25.654774 127.79921 25.931641 127.09766 25.931641 L 125.36523 25.931641 L 125.83008 29.925781 L 128.92383 29.925781 C 130.65708 29.925781 131.90646 29.615113 132.66992 28.996094 C 133.43338 28.397708 134.0103 27.335508 134.40234 25.808594 L 138.24023 10.550781 L 133.16406 10.550781 L 131.64844 19.804688 L 131.36914 19.804688 L 129.97656 10.550781 L 124.4668 10.550781 L 124.57812 10.982422 L 122.14648 10.982422 L 122.14648 10.425781 C 122.14648 10.05437 122.35295 9.8691406 122.76562 9.8691406 C 123.19894 9.8691406 123.88006 9.9202676 124.80859 10.023438 L 125.24219 5.5039062 C 123.83908 5.3801024 122.4961 5.3183594 121.2168 5.3183594 z M 51.361328 5.8457031 C 48.678911 5.8457031 46.769634 6.7120583 45.634766 8.4453125 C 44.499897 10.157933 43.933594 12.644128 43.933594 15.904297 C 43.933594 22.424634 46.089842 25.685547 50.402344 25.685547 C 51.454677 25.685547 52.269905 25.46847 52.847656 25.035156 C 53.053996 24.890718 53.332816 24.673641 53.683594 24.384766 L 53.806641 24.384766 L 54.302734 25.375 L 57.953125 25.375 L 57.953125 14.759766 L 52.042969 14.759766 L 52.042969 18.412109 L 53.435547 18.412109 L 53.435547 20.763672 C 52.610188 20.928744 52.052548 21.011719 51.763672 21.011719 C 50.773241 21.011719 50.113347 20.620029 49.783203 19.835938 C 49.473693 19.031212 49.318359 17.760598 49.318359 16.027344 C 49.318359 14.273456 49.484309 12.994178 49.814453 12.189453 C 50.165231 11.384728 50.793277 10.982422 51.701172 10.982422 C 52.629701 10.982422 54.085544 11.282474 56.066406 11.880859 L 56.902344 6.8359375 C 55.354795 6.1756502 53.507262 5.8457031 51.361328 5.8457031 z M 66.558594 10.177734 C 64.804706 10.177734 62.607946 10.518297 59.966797 11.199219 L 60.740234 15.71875 C 62.8449 15.120365 64.392382 14.820312 65.382812 14.820312 C 65.960564 14.820312 66.248047 15.109749 66.248047 15.6875 L 66.248047 16.429688 C 63.957675 16.636027 62.276092 17.070181 61.203125 17.730469 C 60.150792 18.390756 59.625 19.576442 59.625 21.289062 C 59.625 22.650905 59.944331 23.723721 60.583984 24.507812 C 61.244272 25.291904 62.184939 25.685547 63.402344 25.685547 C 64.99116 25.685547 66.16623 25.157802 66.929688 24.105469 L 67.083984 24.105469 C 67.496664 25.157802 68.467226 25.685547 69.994141 25.685547 C 70.117944 25.685547 70.777839 25.643083 71.974609 25.560547 L 72.439453 21.816406 C 71.964872 21.816406 71.624309 21.754663 71.417969 21.630859 C 71.232263 21.486422 71.138672 21.218217 71.138672 20.826172 L 71.292969 14.417969 C 71.292969 12.952956 70.943743 11.88014 70.242188 11.199219 C 69.540632 10.518297 68.312482 10.177734 66.558594 10.177734 z M 82.808594 10.177734 C 81.261045 10.177734 79.918072 10.663016 78.783203 11.632812 L 78.660156 11.632812 L 78.351562 10.550781 L 73.615234 10.550781 L 73.615234 25.375 L 78.814453 25.375 L 78.814453 15.378906 C 79.206499 15.090031 79.69178 14.945312 80.269531 14.945312 C 80.723479 14.945312 80.951172 15.202901 80.951172 15.71875 L 80.951172 25.375 L 86.212891 25.375 L 86.212891 15.378906 C 86.604936 15.090031 87.088264 14.945312 87.666016 14.945312 C 88.119963 14.945312 88.347656 15.202901 88.347656 15.71875 L 88.347656 25.375 L 93.609375 25.375 L 93.609375 13.955078 C 93.609375 12.696405 93.330555 11.757691 92.773438 11.138672 C 92.236954 10.499019 91.287624 10.177734 89.925781 10.177734 C 88.563939 10.177734 87.316509 10.663016 86.181641 11.632812 L 85.871094 11.912109 C 85.396512 10.756607 84.376776 10.177734 82.808594 10.177734 z M 101.78125 10.177734 C 97.406847 10.177734 95.21875 12.757521 95.21875 17.916016 C 95.21875 20.309557 95.787006 22.208218 96.921875 23.611328 C 98.056744 24.993805 99.685247 25.685547 101.81055 25.685547 C 103.5438 25.685547 105.27846 25.417343 107.01172 24.880859 L 106.57812 21.042969 C 104.59726 21.51755 103.26686 21.753906 102.58594 21.753906 C 101.16219 21.753906 100.44922 20.981142 100.44922 19.433594 L 107.50586 19.433594 C 107.6503 17.452732 107.72266 16.337451 107.72266 16.089844 C 107.72266 14.191518 107.25861 12.737627 106.33008 11.726562 C 105.42218 10.694864 103.90655 10.177734 101.78125 10.177734 z M 109.27148 10.705078 L 109.27148 25.375 L 114.37695 25.375 L 114.37695 10.705078 L 109.27148 10.705078 z M 101.65625 14.603516 C 102.58478 14.603516 103.04883 15.088797 103.04883 16.058594 L 103.04883 16.802734 L 100.35742 16.802734 C 100.35742 16.059911 100.43844 15.512887 100.60352 15.162109 C 100.76859 14.790698 101.11977 14.603516 101.65625 14.603516 z M 66.464844 19.339844 L 66.464844 20.857422 C 66.464844 21.662147 66.08377 22.064453 65.320312 22.064453 C 64.680659 22.064453 64.361328 21.681426 64.361328 20.917969 C 64.361328 20.402119 64.514709 20.042277 64.824219 19.835938 C 65.154362 19.608964 65.701387 19.443014 66.464844 19.339844 z " />
    <g
       id="g8859"
       transform="matrix(0.74600691,0,0,0.74600691,4.8296228,4.0638894)"
       style="fill:#41d9bd;fill-opacity:1">
      <g
         id="g2063"
         transform="translate(183.49784,-38.733148)"
         style="fill:#41d9bd;fill-opacity:1">
        <path
           d="m -181.02867,65.566232 c -0.0292,1.084998 0.37909,2.136169 1.133,2.917 0.75343,0.777387 1.78942,1.216744 2.872,1.218 1.08291,3.49e-4 2.1195,-0.439262 2.872,-1.218 0.75537,-0.779897 1.1639,-1.831706 1.133,-2.917 -0.009,-0.698 -0.2,-1.382 -0.557,-1.981 -0.356,-0.6 -0.863,-1.094 -1.47,-1.433 0.024,0.109 -0.09,-0.055 0,0 l -1.86,-1.652 c -1.47442,-1.56922 -2.29793,-3.639787 -2.304,-5.793 0,-2.926 1.711,-5.901 4.17,-7.457 -0.094,0.055 0.036,-0.094 0,0 0.60731,-0.339979 1.11406,-0.834312 1.469,-1.433 0.35617,-0.599701 0.54827,-1.282562 0.557,-1.98 0.0296,-1.085361 -0.37874,-2.136986 -1.133,-2.918 -0.75319,-0.777139 -1.78876,-1.216474 -2.871,-1.218 -1.08296,-5.8e-4 -2.11963,0.439068 -2.872,1.218 -0.75566,0.779709 -1.16424,1.831647 -1.133,2.917 -0.0104,2.172084 -0.84994,4.258196 -2.347,5.832 l -0.817,0.8 c -0.326,0.285 -0.668,0.551 -1.024,0.798 -0.621,0.33 -1.142,0.826 -1.504,1.431 -1.1433,1.910844 -0.45829,4.389446 1.504,5.442 -0.033,-0.067 0.063,0.036 0,0 1.25616,0.794058 2.2953,1.887835 3.024,3.183 0.7305,1.297352 1.12834,2.755419 1.158,4.244 z"
           style="fill:#41d9bd;fill-opacity:1"
           id="path1777" />
        <path
           d="m -176.83601,69.758895 c -1.08499,0.0292 -2.13616,-0.379093 -2.917,-1.133 -0.77738,-0.75343 -1.21674,-1.789417 -1.218,-2.872 -3.4e-4,-1.08291 0.43927,-2.119497 1.218,-2.872 0.7799,-0.755366 1.83171,-1.163902 2.917,-1.133 0.698,0.009 1.382,0.2 1.981,0.557 0.6,0.356 1.094,0.863 1.433,1.47 -0.109,-0.024 0.055,0.09 0,0 l 1.652,1.86 c 1.56922,1.474419 3.63979,2.297928 5.793,2.304 2.926,0 5.901,-1.711 7.457,-4.17 -0.055,0.094 0.094,-0.036 0,0 0.33998,-0.607308 0.83432,-1.11406 1.433,-1.469 0.59971,-0.356166 1.28257,-0.548264 1.98,-0.557 1.08537,-0.02958 2.13699,0.378745 2.918,1.133 0.77714,0.753188 1.21648,1.788764 1.218,2.871 5.8e-4,1.082957 -0.43906,2.11963 -1.218,2.872 -0.7797,0.755659 -1.83164,1.164245 -2.917,1.133 -2.17208,0.01041 -4.25819,0.849938 -5.832,2.347 l -0.8,0.817 c -0.285,0.326 -0.551,0.668 -0.798,1.024 -0.33,0.621 -0.826,1.142 -1.431,1.504 -1.91084,1.143302 -4.38944,0.458293 -5.442,-1.504 0.067,0.033 -0.036,-0.063 0,0 -0.79405,-1.256158 -1.88783,-2.295298 -3.183,-3.024 -1.29735,-0.7305 -2.75541,-1.128342 -4.244,-1.158 z"
           style="fill:#41d9bd;fill-opacity:1"
           id="path1777-1" />
        <path
           d="m -176.85206,39.707401 c -1.08499,-0.0292 -2.13616,0.379093 -2.917,1.133 -0.77738,0.75343 -1.21674,1.789417 -1.218,2.872 -3.4e-4,1.08291 0.43927,2.119497 1.218,2.872 0.7799,0.755366 1.83171,1.163902 2.917,1.133 0.698,-0.009 1.382,-0.2 1.981,-0.557 0.6,-0.356 1.094,-0.863 1.433,-1.47 -0.109,0.024 0.055,-0.09 0,0 l 1.652,-1.86 c 1.56922,-1.474419 3.63979,-2.297928 5.793,-2.304 2.926,0 5.901,1.711 7.457,4.17 -0.055,-0.094 0.094,0.036 0,0 0.33998,0.607308 0.83432,1.11406 1.433,1.469 0.59971,0.356166 1.28257,0.548264 1.98,0.557 1.08537,0.02958 2.13699,-0.378745 2.918,-1.133 0.77714,-0.753188 1.21648,-1.788764 1.218,-2.871 5.8e-4,-1.082957 -0.43906,-2.11963 -1.218,-2.872 -0.7797,-0.755659 -1.83164,-1.164245 -2.917,-1.133 -2.17208,-0.01041 -4.25819,-0.849938 -5.832,-2.347 l -0.8,-0.817 c -0.285,-0.326 -0.551,-0.668 -0.798,-1.024 -0.33,-0.621 -0.826,-1.142 -1.431,-1.504 -1.91084,-1.143302 -4.38944,-0.458293 -5.442,1.504 0.067,-0.033 -0.036,0.063 0,0 -0.79405,1.256158 -1.88783,2.295298 -3.183,3.024 -1.29735,0.7305 -2.75541,1.128342 -4.244,1.158 z"
           style="fill:#41d9bd;fill-opacity:1"
           id="path1777-1-5" />
      </g>
      <g
         id="g8849"
         style="fill:#41d9bd;fill-opacity:1">
        <path
           fill="#6366f1"
           d="m 34.750663,11.913211 c -0.793,0 -1.567001,0.236 -2.226001,0.678 a 4.021,4.021 0 0 0 -1.476,1.807 4.042,4.042 0 0 0 0.869,4.386 4.001,4.001 0 0 0 4.366001,0.873 4.011,4.011 0 0 0 1.798,-1.483 4.038,4.038 0 0 0 -0.5,-5.08 4.004,4.004 0 0 0 -2.831,-1.181 z"
           id="path4-4-5"
           style="fill:#41d9bd;fill-opacity:1" />
        <path
           d="m 17.500074,11.975656 c -0.792,0 -1.567,0.236 -2.226,0.678 -0.65962,0.442949 -1.17324,1.071393 -1.476,1.806 -0.6194,1.50398 -0.27696,3.232713 0.869,4.387 1.14258,1.151438 2.86852,1.496546 4.366,0.873 0.73345,-0.305518 1.3596,-0.822032 1.799,-1.484 1.0612,-1.597824 0.85225,-3.721626 -0.5,-5.082 -0.74963,-0.754113 -1.76868,-1.178715 -2.832,-1.18 z"
           style="fill:#41d9bd;fill-opacity:1"
           id="path1613" />
        <path
           d="m 23.317336,26.958391 c 1.896433,-2.583202 -3.885763,-6.691016 -6.750022,-7.038835 -0.83135,-0.239208 -1.022671,-0.40309 -1.507705,-0.712512 -0.550623,-0.498725 -1.086161,-1.017118 -1.281209,-1.766545 -0.50895,-1.316763 -0.311405,-2.459489 0.309238,-3.49812 0.620504,-1.034172 1.476183,-1.64065 2.664302,-1.924736 1.189161,-0.283255 2.116526,0.105291 3.149914,0.748488 1.037212,0.643167 1.301607,1.438301 1.555915,2.616258 0.589018,2.338373 3.214793,4.853835 5.277374,6.159391 l 1.10997,0.649027 c 0.433804,0.222095 0.880126,0.419539 1.33677,0.592846 0.769737,0.193607 1.4738,0.592233 2.032231,1.149832 1.763709,1.761144 1.67053,4.611374 -0.204574,6.257942 0.01839,-0.08082 -0.05963,0.05524 0,0 -4.485027,-5.316302 -1.850113,2.895557 -7.508499,-2.038988 z"
           style="fill:#41d9bd;fill-opacity:1;stroke-width:1.11941"
           id="path1777-9"
           sodipodi:nodetypes="cccccccccccccccc" />
      </g>
    </g>
  </g>
</svg>
