<svg xmlns="http://www.w3.org/2000/svg"  viewBox="0 0 128 128" width="64px" height="64px"><path fill="#fff" d="M55,97c-0.8,0-1.6-0.2-2.4-0.5L8.7,77.2c-3-1.3-4.4-4.9-3.1-7.9c1.3-3,4.9-4.4,7.9-3.1l43.9,19.2 c3,1.3,4.4,4.9,3.1,7.9C59.5,95.7,57.3,97,55,97z"/><path fill="#fff" d="M97,24c-13.8,0-25,11.2-25,25c0,0.3,0,0.7,0,1L53.9,73.1C44.5,73.6,37,81.4,37,91c0,9.9,8.1,18,18,18 c9.6,0,17.4-7.5,17.9-16.9C79.8,86.8,88.8,79.7,96,74c0.3,0,0.7,0,1,0c13.8,0,25-11.2,25-25S110.8,24,97,24z"/><path fill="#444b54" d="M55,112c-6.3,0-12.2-2.8-16.2-7.6c-1.1-1.3-0.9-3.2,0.4-4.2c1.3-1.1,3.2-0.9,4.2,0.4 c2.9,3.4,7.1,5.4,11.5,5.4c7.9,0,14.5-6.2,14.9-14c0-0.2,0-0.4,0.1-0.5c0-0.1,0-0.3,0-0.4c0-8.2-6.7-15-14.9-15L54,76.1 c-1.2,0.1-2.3-0.6-2.8-1.6c-0.5-1-0.4-2.3,0.3-3.2L69,49c0-15.4,12.6-28,28-28c15.4,0,28,12.6,28,28c0,15.4-12.6,28-28,28 L75.8,93.7C74.5,104.1,65.6,112,55,112z M59.7,70.5c7.8,1.8,14,8,15.8,15.8l18.7-14.7c0.6-0.4,1.3-0.7,2-0.6c0.3,0,0.6,0,0.9,0 c12.1,0,22-9.9,22-22s-9.9-22-22-22s-22,9.9-22,22c0,0.3,0,0.6,0,0.9c0,0.7-0.2,1.4-0.6,2L59.7,70.5z"/><path fill="#444b54" d="M97,66c-9.4,0-17-7.6-17-17s7.6-17,17-17s17,7.6,17,17S106.4,66,97,66z M97,38c-6.1,0-11,4.9-11,11 s4.9,11,11,11s11-4.9,11-11S103.1,38,97,38z"/><path fill="#444b54" d="M55,100c-1.2,0-2.5-0.3-3.6-0.8L7.5,80C3,78,0.9,72.7,2.9,68.1c1-2.2,2.7-3.9,5-4.8c2.2-0.9,4.7-0.8,6.9,0.1 l43.9,19.2c4.5,2,6.6,7.3,4.6,11.9C61.8,97.9,58.6,100,55,100z M11.1,68.7c-0.4,0-0.7,0.1-1.1,0.2c-0.7,0.3-1.3,0.9-1.7,1.6 c-0.7,1.5,0,3.3,1.5,4l43.9,19.2c0.4,0.2,0.8,0.3,1.2,0.3c1.2,0,2.3-0.7,2.8-1.8c0.7-1.5,0-3.3-1.5-4L12.3,69 C11.9,68.8,11.5,68.7,11.1,68.7z"/></svg>